<svg width="35" height="23" viewBox="0 0 35 23" fill="none" xmlns="http://www.w3.org/2000/svg">
<mask id="path-1-inside-1_2329_57" fill="white">
<path fill-rule="evenodd" clip-rule="evenodd" d="M1.34615 0C0.6027 0 0 0.552741 0 1.23457C0 1.9164 0.6027 2.46914 1.34615 2.46914H33.6538C34.3972 2.46914 35 1.9164 35 1.23457C35 0.552741 34.3972 0 33.6538 0H1.34615ZM0 11.1111C0 10.4293 0.6027 9.87654 1.34615 9.87654H33.6538C34.3972 9.87654 35 10.4293 35 11.1111C35 11.7929 34.3972 12.3457 33.6538 12.3457H1.34615C0.6027 12.3457 0 11.7929 0 11.1111ZM0 20.9877C0 20.3059 0.6027 19.7531 1.34615 19.7531H33.6538C34.3972 19.7531 35 20.3059 35 20.9877C35 21.6694 34.3972 22.2222 33.6538 22.2222H1.34615C0.6027 22.2222 0 21.6694 0 20.9877Z"/>
</mask>
<path fill-rule="evenodd" clip-rule="evenodd" d="M1.34615 0C0.6027 0 0 0.552741 0 1.23457C0 1.9164 0.6027 2.46914 1.34615 2.46914H33.6538C34.3972 2.46914 35 1.9164 35 1.23457C35 0.552741 34.3972 0 33.6538 0H1.34615ZM0 11.1111C0 10.4293 0.6027 9.87654 1.34615 9.87654H33.6538C34.3972 9.87654 35 10.4293 35 11.1111C35 11.7929 34.3972 12.3457 33.6538 12.3457H1.34615C0.6027 12.3457 0 11.7929 0 11.1111ZM0 20.9877C0 20.3059 0.6027 19.7531 1.34615 19.7531H33.6538C34.3972 19.7531 35 20.3059 35 20.9877C35 21.6694 34.3972 22.2222 33.6538 22.2222H1.34615C0.6027 22.2222 0 21.6694 0 20.9877Z" fill="#495E57"/>
<path d="M1.34615 0V-4C-1.27358 -4 -4 -1.97518 -4 1.23457H0H4C4 3.08066 2.47898 4 1.34615 4V0ZM0 1.23457H-4C-4 4.44431 -1.27358 6.46914 1.34615 6.46914V2.46914V-1.53086C2.47898 -1.53086 4 -0.611522 4 1.23457H0ZM1.34615 2.46914V6.46914H33.6538V2.46914V-1.53086H1.34615V2.46914ZM33.6538 2.46914V6.46914C36.2733 6.46914 39 4.44451 39 1.23457H35H31C31 -0.611721 32.5211 -1.53086 33.6538 -1.53086V2.46914ZM35 1.23457H39C39 -1.97538 36.2733 -4 33.6538 -4V0V4C32.5211 4 31 3.08086 31 1.23457H35ZM33.6538 0V-4H1.34615V0V4H33.6538V0ZM0 11.1111H4C4 12.9572 2.47898 13.8765 1.34615 13.8765V9.87654V5.87654C-1.27358 5.87654 -4 7.90137 -4 11.1111H0ZM1.34615 9.87654V13.8765H33.6538V9.87654V5.87654H1.34615V9.87654ZM33.6538 9.87654V13.8765C32.5211 13.8765 31 12.9574 31 11.1111H35H39C39 7.90117 36.2733 5.87654 33.6538 5.87654V9.87654ZM35 11.1111H31C31 9.26482 32.5211 8.34568 33.6538 8.34568V12.3457V16.3457C36.2733 16.3457 39 14.3211 39 11.1111H35ZM33.6538 12.3457V8.34568H1.34615V12.3457V16.3457H33.6538V12.3457ZM1.34615 12.3457V8.34568C2.47898 8.34568 4 9.26502 4 11.1111H0H-4C-4 14.3209 -1.27358 16.3457 1.34615 16.3457V12.3457ZM0 20.9877H4C4 22.8336 2.4792 23.7531 1.34615 23.7531V19.7531V15.7531C-1.2738 15.7531 -4 17.7782 -4 20.9877H0ZM1.34615 19.7531V23.7531H33.6538V19.7531V15.7531H1.34615V19.7531ZM33.6538 19.7531V23.7531C32.5209 23.7531 31 22.8338 31 20.9877H35H39C39 17.778 36.2735 15.7531 33.6538 15.7531V19.7531ZM35 20.9877H31C31 19.1415 32.5209 18.2222 33.6538 18.2222V22.2222V26.2222C36.2735 26.2222 39 24.1973 39 20.9877H35ZM33.6538 22.2222V18.2222H1.34615V22.2222V26.2222H33.6538V22.2222ZM1.34615 22.2222V18.2222C2.4792 18.2222 4 19.1417 4 20.9877H0H-4C-4 24.1971 -1.2738 26.2222 1.34615 26.2222V22.2222Z" fill="#495E57" mask="url(#path-1-inside-1_2329_57)"/>
</svg>
